<?xml version="1.0" encoding="UTF-8"?>
<svg width="60px" height="60px" viewBox="0 0 60 60" version="1.1" xmlns="http://www.w3.org/2000/svg" xmlns:xlink="http://www.w3.org/1999/xlink">
    <!-- Generator: Sketch 46.1 (44463) - http://www.bohemiancoding.com/sketch -->
    <title>Pinterest_White</title>
    <desc>Created with Sketch.</desc>
    <defs>
        <circle id="path-1" cx="26" cy="26" r="26"></circle>
    </defs>
    <g id="Page-1" stroke="none" stroke-width="1" fill="none" fill-rule="evenodd">
        <g id="Pinterest">
            <circle id="Oval-2" fill="#3F3F3F" cx="30" cy="30" r="30"></circle>
            <g id="Oval-3" transform="translate(4.000000, 4.000000)">
                <mask id="mask-2" fill="white">
                    <use xlink:href="#path-1"></use>
                </mask>
                <use fill="#3F3F3F" xlink:href="#path-1"></use>
                <path d="M25.9839437,55.0162818 C9.97385399,55.0162818 -3,42.0260781 -3,26.0065874 C-3,9.98709677 9.97385399,-3 25.9839437,-3 C41.9909289,-3 54.9678875,9.98709677 54.9678875,26.0065874 C54.9678875,42.0260781 41.9909289,55.0162818 25.9839437,55.0162818 Z M-0.318302207,26.0068981 C-0.318302207,37.1422462 6.60481203,46.6557606 16.3747854,50.4866435 C16.1450497,48.4080866 15.9401504,45.2172377 16.4679214,42.9429423 C16.9429154,40.892348 19.5476207,29.8781715 19.5476207,29.8781715 C19.5476207,29.8781715 18.7621732,28.3029423 18.7621732,25.9758285 C18.7621732,22.3189355 20.8763619,19.5910238 23.5152171,19.5910238 C25.7535872,19.5910238 26.8370701,21.2749966 26.8370701,23.2945212 C26.8370701,25.5501749 25.4027747,28.9212275 24.6607907,32.0468302 C24.0429881,34.6659983 25.9740092,36.7973735 28.5507737,36.7973735 C33.2199951,36.7973735 36.8088382,31.8697334 36.8088382,24.7578998 C36.8088382,18.4631969 32.291739,14.0637402 25.8374097,14.0637402 C18.3647926,14.0637402 13.9780839,19.6749117 13.9780839,25.4725008 C13.9780839,27.7312615 14.8442493,30.154691 15.9308368,31.4720424 C16.1450497,31.7330272 16.1760951,31.9598353 16.1140044,32.227034 C15.9153141,33.0565925 15.4713655,34.8430951 15.3844385,35.2066095 C15.2695707,35.6881885 15.0025806,35.7907182 14.5027504,35.5608031 C11.2243609,34.0321783 9.17536745,29.2288166 9.17536745,25.3761851 C9.17536745,17.0837063 15.1950618,9.46543803 26.5297211,9.46543803 C35.6415329,9.46543803 42.7229784,15.9652003 42.7229784,24.6491562 C42.7229784,33.7090543 37.0137376,41.0010917 29.0940674,41.0010917 C26.4303759,41.0010917 23.9281203,39.6153871 23.0712685,37.9811256 C23.0712685,37.9811256 21.7549454,42.9988676 21.4351783,44.2292241 C20.842212,46.5128404 19.2402716,49.3743514 18.1723114,51.1204635 C20.627999,51.8847759 23.2389134,52.2948947 25.9491729,52.2948947 C40.4566675,52.2948947 52.2166481,40.5257267 52.2166481,26.0068981 C52.2166481,11.4849626 40.4566675,-0.281098472 25.9491729,-0.281098472 C11.4416784,-0.281098472 -0.318302207,11.4849626 -0.318302207,26.0068981 Z" id="Mask" fill="#F2F2F2" mask="url(#mask-2)"></path>
            </g>
        </g>
    </g>
</svg>