<?xml version="1.0" encoding="UTF-8"?>
<svg width="63px" height="60px" viewBox="0 0 63 60" version="1.1" xmlns="http://www.w3.org/2000/svg" xmlns:xlink="http://www.w3.org/1999/xlink">
    <!-- Generator: Sketch 46.1 (44463) - http://www.bohemiancoding.com/sketch -->
    <title>Octicons-mark-github</title>
    <desc>Created with Sketch.</desc>
    <defs></defs>
    <g id="Page-1" stroke="none" stroke-width="1" fill="none" fill-rule="evenodd">
        <g id="Artboard-Copy-5" transform="translate(-715.000000, -2392.000000)" fill-rule="nonzero" fill="#000000">
            <g id="Octicons-mark-github" transform="translate(715.000000, 2392.000000)">
                <path d="M31.1111111,0 C13.9301215,0 0,13.7721921 0,30.7583963 C0,44.3503635 8.91333333,55.8772527 21.2768403,59.9435487 C22.8320312,60.2251803 23.399809,59.2752145 23.399809,58.464202 C23.399809,57.732008 23.3713108,55.3065403 23.3561198,52.7383343 C14.7048611,54.5968744 12.8762326,49.1113066 12.8762326,49.1113066 C11.4597049,45.5593727 9.42217014,44.6131916 9.42217014,44.6131916 C6.59476562,42.7058105 9.63666667,42.7433574 9.63666667,42.7433574 C12.7602951,42.9573445 14.404809,45.9123133 14.404809,45.9123133 C17.1809896,50.6131815 21.6888802,49.2539847 23.4586285,48.4655005 C23.7414236,46.4830257 24.5465451,45.123829 25.4334549,44.3578728 C18.5272743,43.5806826 11.2622222,40.9411076 11.2622222,29.1551149 C11.2622222,25.79464 12.4756163,23.0537785 14.4618056,20.9004505 C14.1446788,20.1194755 13.0737153,16.9899289 14.7693924,12.7565643 C14.7693924,12.7565643 17.3784722,11.9305331 23.3256771,15.9105014 C25.8055729,15.225286 28.4659375,14.8873642 31.1110503,14.8760701 C33.7542795,14.8873642 36.416467,15.2290107 38.9002517,15.9142261 C44.8361545,11.9305331 47.4490017,12.7602889 47.4490017,12.7602889 C49.1503906,16.9974382 48.0794271,20.1232002 47.7604167,20.9004505 C49.7542014,23.0537785 50.9581163,25.7947 50.9581163,29.1551149 C50.9581163,40.9711451 43.6816406,43.5731132 36.7507899,44.3353447 C37.8711545,45.2890352 38.8623351,47.1588694 38.8623351,50.0274503 C38.8623351,54.1388626 38.8205295,57.4542213 38.8205295,58.4679868 C38.8205295,59.2865085 39.3863628,60.2439237 40.9624566,59.9435487 C53.3165451,55.8697433 62.2222222,44.3428541 62.2222222,30.7583963 C62.2222222,13.7721921 48.2921007,0 31.1111111,0 Z" id="Shape"></path>
            </g>
        </g>
    </g>
</svg>