<?xml version="1.0" encoding="UTF-8"?>
<svg width="54px" height="62px" viewBox="0 0 54 62" version="1.1" xmlns="http://www.w3.org/2000/svg" xmlns:xlink="http://www.w3.org/1999/xlink">
    <!-- Generator: Sketch 46.1 (44463) - http://www.bohemiancoding.com/sketch -->
    <title>Group 5</title>
    <desc>Created with Sketch.</desc>
    <defs></defs>
    <g id="Page-1" stroke="none" stroke-width="1" fill="none" fill-rule="evenodd">
        <g id="Artboard-Copy-5" transform="translate(-510.000000, -2392.000000)">
            <g id="Group-5" transform="translate(510.000000, 2392.000000)">
                <path d="M28.2075163,42.7249194 L26.1782401,42.7321243 L27.191811,42.418468 L28.2075163,42.7249194 Z M12.1455336,31.8907509 L10.2717391,11.0288462 L43.7257423,11.0288462 L43.1387858,18.1826923 L17.9870164,18.1826923 L18.5757089,24.7369047 L42.7112293,24.7369047 L40.9005956,45.654722 L27.2175229,49.8890402 L13.2221388,45.6664515 L12.4368406,35.0034141 L19.4583149,35.0345364 L19.5683234,40.5049861 L27.191811,42.418468 L34.593972,40.5167156 L35.0213507,31.8907509 L12.1455336,31.8907509 Z" id="Path-9-Copy-3" fill="#000000" fill-rule="nonzero"></path>
                <path d="M1.64971527,1.5 L6.67932784,54.2870496 L27,60.2111152 L47.3206722,54.2870496 L52.3502847,1.5 L1.64971527,1.5 Z" id="Rectangle-Copy-8" stroke="#000000" stroke-width="3"></path>
            </g>
        </g>
    </g>
</svg>