<?xml version="1.0" encoding="UTF-8"?>
<svg width="54px" height="62px" viewBox="0 0 54 62" version="1.1" xmlns="http://www.w3.org/2000/svg" xmlns:xlink="http://www.w3.org/1999/xlink">
    <!-- Generator: Sketch 59.1 (86144) - https://sketch.com -->
    <title>Group 5 Copy</title>
    <desc>Created with Sketch.</desc>
    <g id="Page-1" stroke="none" stroke-width="1" fill="none" fill-rule="evenodd">
        <g id="Artboard-Copy-5" transform="translate(-166.000000, -2392.000000)" fill="#000000">
            <g id="Group-5-Copy" transform="translate(166.000000, 2392.000000)">
                <path d="M54,-7.81597009e-14 L48.7173913,55.4423077 L27,61.7735574 L5.2826087,55.4423077 L0,-7.81597009e-14 L54,-7.81597009e-14 Z M43.7257423,11.0288462 L10.2717391,11.0288462 L12.1455336,31.8907509 L35.0213507,31.8907509 L34.593972,40.5167156 L27.191811,42.418468 L19.5683234,40.5049861 L19.4583149,35.0345364 L12.4368406,35.0034141 L13.2221388,45.6664515 L27.2175229,49.8890402 L40.9005956,45.654722 L42.7112293,24.7369047 L18.5757089,24.7369047 L17.9870164,18.1826923 L43.1387858,18.1826923 L43.7257423,11.0288462 Z M27.191811,42.418468 L28.2075163,42.7249194 L26.1782401,42.7321243 L27.191811,42.418468 Z" id="Combined-Shape"></path>
            </g>
        </g>
    </g>
</svg>