<?xml version="1.0" encoding="UTF-8"?>
<svg width="54px" height="52px" viewBox="0 0 54 52" version="1.1" xmlns="http://www.w3.org/2000/svg" xmlns:xlink="http://www.w3.org/1999/xlink">
    <!-- Generator: Sketch 49.2 (51160) - http://www.bohemiancoding.com/sketch -->
    <title>Group 7</title>
    <desc>Created with Sketch.</desc>
    <defs></defs>
    <g id="Page-1" stroke="none" stroke-width="1" fill="none" fill-rule="evenodd">
        <g id="Artboard-Copy-5" transform="translate(-918.000000, -2400.000000)">
            <g id="Group-7" transform="translate(914.000000, 2395.000000)">
                <rect id="Rectangle-2" x="0" y="0" width="62" height="62"></rect>
                <path d="M56.3980429,42.1845 C55.9220429,43.0825 55.5030429,44.0165 54.9610429,44.8725 C52.5220429,48.7215 49.3610429,51.8085 45.2380429,53.8305 C41.6830429,55.5745 37.9190429,56.4305 33.9530429,56.4335 C31.0290429,56.4345 28.1260429,56.2995 25.3060429,55.4165 C22.4300429,54.5165 19.7520429,53.2155 17.2360429,51.5525 C14.2770429,49.5975 11.7430429,47.1905 9.63404285,44.3575 C6.94504285,40.7435 5.06504285,36.7255 4.36104285,32.2635 C3.63004285,27.6365 3.89404285,23.0475 6.22704285,18.8635 C7.31004285,16.9205 8.82204285,15.2145 10.1490429,13.4105 C10.4510429,12.9985 10.7940429,12.6205 11.2520429,12.2955 C10.9580429,13.0625 10.6500429,13.8245 10.3720429,14.5955 C9.69504285,16.4725 9.27304285,18.3855 9.17404285,20.4015 C9.05804285,22.7665 9.19104285,25.0795 9.73404285,27.3805 C10.6700429,31.3425 12.4670429,34.8725 14.9690429,38.0695 C17.5010429,41.3055 20.5800429,43.9095 24.1370429,45.9225 C27.8880429,48.0465 31.9350429,49.2545 36.2480429,49.6215 C40.8540429,50.0155 45.2490429,49.2945 49.4250429,47.3305 C51.8860429,46.1735 53.9960429,44.5315 55.7350429,42.4315 C55.8620429,42.2775 55.9310429,42.0765 56.0270429,41.8965 C56.1510429,41.9935 56.2750429,42.0885 56.3980429,42.1845 Z M25.0943429,7.3506 C24.1473429,9.0346 23.5323429,10.8196 23.2873429,12.7376 C22.9223429,15.5866 23.2413429,18.3546 24.2403429,21.0336 C25.3663429,24.0566 27.1593429,26.6686 29.4973429,28.8706 C33.0773429,32.2396 37.3093429,34.3566 42.2273429,34.8306 C46.5843429,35.2506 50.7363429,34.5146 54.3013429,31.7606 C55.3103429,30.9816 56.1423429,29.9716 57.0523429,29.0656 C57.1903429,28.9276 57.3163429,28.7776 57.6033429,28.6966 C57.5303429,28.9716 57.4933429,29.2646 57.3773429,29.5196 C55.3233429,34.0126 52.0383429,37.1786 47.3083429,38.7416 C42.6973429,40.2646 38.0423429,40.3696 33.4963429,38.6296 C28.1993429,36.6026 24.1493429,33.0806 21.5313429,27.9656 C19.7383429,24.4606 19.2053429,20.7736 19.7653429,16.9236 C20.0623429,14.8876 20.8233429,12.9916 22.0003429,11.2836 C22.7913429,10.1366 23.5943429,8.9986 24.3983429,7.8616 C24.5543429,7.6386 24.7383429,7.4366 24.9093429,7.2246 L25.0943429,7.3506 Z M35.9009429,5 C35.6339429,6.349 35.2119429,7.689 35.1309429,9.051 C34.9559429,12.023 36.1269429,14.577 37.9439429,16.87 C39.9819429,19.441 42.6319429,21.081 45.8149429,21.713 C48.1929429,22.186 50.6619429,22.437 52.9279429,21.233 C53.9079429,20.714 54.7289429,19.896 55.6119429,19.201 C55.7799429,19.069 55.9009429,18.878 56.0449429,18.714 C56.1029429,18.749 56.1629429,18.784 56.2219429,18.819 C56.0939429,19.076 55.9789429,19.34 55.8379429,19.589 C54.1709429,22.533 51.7829429,24.557 48.3659429,25.029 C44.4779429,25.567 40.8809429,24.778 37.7529429,22.265 C35.1569429,20.18 33.4309429,17.542 32.8689429,14.259 C32.2509429,10.645 33.5049429,7.588 35.9009429,5 Z" id="Combined-Shape" fill="#000000"></path>
            </g>
        </g>
    </g>
</svg>