<?xml version="1.0" encoding="UTF-8"?>
<svg width="62px" height="62px" viewBox="0 0 62 62" version="1.1" xmlns="http://www.w3.org/2000/svg" xmlns:xlink="http://www.w3.org/1999/xlink">
    <!-- Generator: Sketch 49.2 (51160) - http://www.bohemiancoding.com/sketch -->
    <title>Group 6</title>
    <desc>Created with Sketch.</desc>
    <defs></defs>
    <g id="Page-1" stroke="none" stroke-width="1" fill="none" fill-rule="evenodd">
        <g id="Artboard-Copy-5" transform="translate(-706.000000, -2612.000000)">
            <g id="Group-6" transform="translate(706.000000, 2612.000000)">
                <circle id="Oval-4-Copy-2" stroke="#000000" stroke-width="3" cx="31" cy="31" r="29.5"></circle>
                <path d="M20.1614604,50.7392707 C21.5610439,50.5552289 22.6407346,49.3721323 22.6407346,47.9400795 C22.6407346,46.3803937 21.3600105,45.1160184 19.7801574,45.1160184 C19.5096967,45.1160184 19.2480026,45.1530738 19,45.2223225 L19,27.821286 C19,20.1880005 25.2680135,14 33,14 L33.1035962,14 C40.7783681,14 47,20.142211 47,27.7190123 C47,35.2958136 40.7783681,41.4380246 33.1035962,41.4380246 L32.6192246,41.4380246 C30.3212564,41.4380246 28.4583851,39.5989334 28.4583851,37.3302994 C28.4583851,35.0616654 30.3212564,33.2225742 32.6192246,33.2225742 L33.1035962,33.2225742 C36.1824317,33.2225742 38.678321,30.7585456 38.678321,27.7190123 C38.678321,24.679479 36.1824317,22.2154504 33.1035962,22.2154504 L33,22.2154504 C29.8639499,22.2154504 27.321679,24.7252685 27.321679,27.821286 L27.321679,47.8922748 C27.321679,50.1609088 25.4588077,52 23.1608395,52 C21.9824614,52 20.9184942,51.5164019 20.1614604,50.7392707 Z M32.8868018,40.0840551 C34.466655,40.0840551 35.747379,38.8196799 35.747379,37.259994 C35.747379,35.7003081 34.466655,34.4359329 32.8868018,34.4359329 C31.3069487,34.4359329 30.0262247,35.7003081 30.0262247,37.259994 C30.0262247,38.8196799 31.3069487,40.0840551 32.8868018,40.0840551 Z" id="Combined-Shape-Copy-2" fill="#000000" fill-rule="nonzero"></path>
            </g>
        </g>
    </g>
</svg>