<?xml version="1.0" encoding="UTF-8"?>
<svg width="62px" height="62px" viewBox="0 0 62 62" version="1.1" xmlns="http://www.w3.org/2000/svg" xmlns:xlink="http://www.w3.org/1999/xlink">
    <!-- Generator: Sketch 59.1 (86144) - https://sketch.com -->
    <title>Combined Shape Copy 4</title>
    <desc>Created with Sketch.</desc>
    <g id="Page-1" stroke="none" stroke-width="1" fill="none" fill-rule="evenodd">
        <g id="Artboard-Copy-5" transform="translate(-320.000000, -2390.000000)" fill="#000000">
            <path d="M351,2390 C368.120827,2390 382,2403.87917 382,2421 C382,2438.12083 368.120827,2452 351,2452 C333.879173,2452 320,2438.12083 320,2421 C320,2403.87917 333.879173,2390 351,2390 Z M352.89007,2403.11538 L352.788609,2403.11538 C345.216018,2403.11538 339.077219,2409.32844 339.077219,2416.99263 L339.077219,2416.99263 L339.076907,2434.4642 C339.31989,2434.39462 339.576295,2434.35738 339.841293,2434.35738 C341.388578,2434.35738 342.6429,2435.62687 342.6429,2437.19287 C342.6429,2438.63057 341.585692,2439.81836 340.214235,2440.00287 C340.955694,2440.78346 341.997937,2441.26923 343.152283,2441.26923 C345.402879,2441.26923 347.227347,2439.42269 347.227347,2437.14488 L347.227347,2437.14488 L347.227347,2416.99263 C347.227347,2413.88408 349.717209,2411.3641 352.788609,2411.3641 L352.788609,2411.3641 L352.89007,2411.3641 C355.905435,2411.3641 358.349872,2413.8381 358.349872,2416.88994 C358.349872,2419.94178 355.905435,2422.41578 352.89007,2422.41578 L352.89007,2422.41578 L352.415684,2422.41578 C350.165088,2422.41578 348.34062,2424.26232 348.34062,2426.54014 C348.34062,2428.81796 350.165088,2430.66449 352.415684,2430.66449 L352.415684,2430.66449 L352.89007,2430.66449 C360.406627,2430.66449 366.5,2424.49742 366.5,2416.88994 C366.5,2409.28246 360.406627,2403.11538 352.89007,2403.11538 L352.89007,2403.11538 Z M352.677745,2423.63405 C354.225029,2423.63405 355.479351,2424.90355 355.479351,2426.46955 C355.479351,2428.03555 354.225029,2429.30504 352.677745,2429.30504 C351.13046,2429.30504 349.876138,2428.03555 349.876138,2426.46955 C349.876138,2424.90355 351.13046,2423.63405 352.677745,2423.63405 Z" id="Combined-Shape-Copy-4"></path>
        </g>
    </g>
</svg>