<?xml version="1.0" encoding="UTF-8"?>
<svg width="62px" height="62px" viewBox="0 0 62 62" version="1.1" xmlns="http://www.w3.org/2000/svg" xmlns:xlink="http://www.w3.org/1999/xlink">
    <!-- Generator: Sketch 59.1 (86144) - https://sketch.com -->
    <title>Combined Shape</title>
    <desc>Created with Sketch.</desc>
    <g id="Page-1" stroke="none" stroke-width="1" fill="none" fill-rule="evenodd">
        <g id="Artboard-Copy-5" transform="translate(-207.000000, -2554.000000)" fill="#000000">
            <path d="M238,2554 C255.120827,2554 269,2567.87917 269,2585 C269,2602.12083 255.120827,2616 238,2616 C220.879173,2616 207,2602.12083 207,2585 C207,2567.87917 220.879173,2554 238,2554 Z M239.845673,2568.27338 L233.316547,2568.27338 C231.592147,2568.27338 230.194245,2569.67128 230.194245,2571.39568 C230.194245,2573.12008 231.592147,2574.51799 233.316547,2574.51799 L239.845673,2574.51799 C242.98691,2574.51799 245.556954,2577.01928 245.642103,2580.15937 C245.651416,2580.50278 245.656071,2580.84618 245.656071,2581.18957 C245.656071,2581.52554 245.651615,2581.86151 245.642701,2582.19749 C245.559213,2585.34441 242.980113,2587.8499 239.832091,2587.84225 L233.324133,2587.82644 C231.596775,2587.82224 230.194245,2589.22137 230.194245,2590.94873 L230.194245,2598.77906 C230.194245,2600.50346 231.592147,2601.90137 233.316547,2601.90137 C235.040947,2601.90137 236.438849,2600.50346 236.438849,2598.77906 L236.438849,2594.07863 L239.816919,2594.08684 C246.355119,2594.10272 251.711711,2588.89902 251.885109,2582.3631 C251.895487,2581.97193 251.900676,2581.58075 251.900676,2581.18957 C251.900676,2580.78974 251.895255,2580.38991 251.884413,2579.9901 C251.707565,2573.46838 246.369782,2568.27338 239.845673,2568.27338 Z" id="Combined-Shape"></path>
        </g>
    </g>
</svg>