<?xml version="1.0" encoding="UTF-8"?>
<svg width="62px" height="62px" viewBox="0 0 62 62" version="1.1" xmlns="http://www.w3.org/2000/svg" xmlns:xlink="http://www.w3.org/1999/xlink">
    <!-- Generator: Sketch 46.1 (44463) - http://www.bohemiancoding.com/sketch -->
    <title>Group 15</title>
    <desc>Created with Sketch.</desc>
    <defs></defs>
    <g id="Page-1" stroke="none" stroke-width="1" fill="none" fill-rule="evenodd">
        <g id="Artboard-Copy-5" transform="translate(-607.000000, -2612.000000)">
            <g id="Group-15" transform="translate(607.000000, 2612.000000)">
                <circle id="Oval-3-Copy" stroke="#000000" stroke-width="3" cx="31" cy="31" r="29.5"></circle>
                <path d="M32.816919,40.0868355 C39.3551187,40.1027211 44.7117111,34.8990179 44.8851092,28.3630986 C44.8954868,27.971932 44.9006758,27.5807545 44.9006758,27.1895733 C44.9006758,26.7897407 44.8952548,26.389912 44.884413,25.990095 C44.7075653,19.4683837 39.3697816,14.2733813 32.845673,14.2733813 L26.3165468,14.2733813 C24.5921469,14.2733813 23.1942446,15.6712836 23.1942446,17.3956835 C23.1942446,19.1200833 24.5921469,20.5179856 26.3165468,20.5179856 L32.8456729,20.5179856 C35.9869104,20.5179856 38.5569544,23.0192831 38.6421033,26.1593663 C38.6514155,26.5027777 38.6560715,26.8461774 38.6560715,27.1895733 C38.6560715,27.5255386 38.6516148,27.8615076 38.6427013,28.1974874 C38.5592133,31.3444115 35.9801133,33.8498983 32.8320912,33.8422496 L26.3241329,33.8264375 C24.5967748,33.8222406 23.1942446,35.2213673 23.1942446,36.9487305 L23.1942446,44.7790632 C23.1942446,46.5034631 24.5921469,47.9013654 26.3165468,47.9013654 C28.0409466,47.9013654 29.4388489,46.5034631 29.4388489,44.7790632 L29.4388489,40.078628 L32.816919,40.0868355 Z" id="Path-14-Copy" fill="#000000" fill-rule="nonzero"></path>
            </g>
        </g>
    </g>
</svg>