<?xml version="1.0" encoding="UTF-8"?>
<svg width="60px" height="59px" viewBox="0 0 60 59" version="1.1" xmlns="http://www.w3.org/2000/svg" xmlns:xlink="http://www.w3.org/1999/xlink">
    <!-- Generator: Sketch 59.1 (86144) - https://sketch.com -->
    <title>Group 9</title>
    <desc>Created with Sketch.</desc>
    <defs>
        <path d="M3.68374512,0 L58.0468565,0 C58.9786022,-2.83569417e-15 59.7339313,0.75532913 59.7339313,1.68707483 C59.7339313,2.06251864 59.6086958,2.42723538 59.3780525,2.72348146 L58.5126535,3.83502943 L58.5126535,3.83502943 L36.4356569,32.1914762 C34.5753843,34.5808738 31.130346,35.0098143 28.7409484,33.1495416 C28.4560243,32.9277131 28.1937103,32.6782807 27.9578277,32.404878 L2.40637828,2.78914354 C1.79772254,2.08367331 1.87620619,1.01836373 2.58167641,0.409707991 C2.888019,0.145406012 3.27914492,-8.13854569e-16 3.68374512,0 Z" id="path-1"></path>
    </defs>
    <g id="Page-1" stroke="none" stroke-width="1" fill="none" fill-rule="evenodd">
        <g id="Artboard-Copy-5" transform="translate(-73.000000, -2394.000000)">
            <g id="Group-9" transform="translate(71.000000, 2394.000000)">
                <path d="M3.79222955,12.140031 L59.9198367,12.140031 C60.8515824,12.140031 61.6069116,12.8953602 61.6069116,13.8271059 L61.6069116,24.0133289 C61.6069116,24.5080286 61.389784,24.9777999 61.0129806,25.2983417 L33.7114754,48.5233811 C33.0052757,49.1241361 31.9466246,49.0424347 31.3409647,48.340437 L2.51486271,14.9291746 C1.90620697,14.2237043 1.98469061,13.1583948 2.69016084,12.549739 C2.99650343,12.285437 3.38762935,12.140031 3.79222955,12.140031 Z" id="Path-18-Copy" fill="#000000" opacity="0.5"></path>
                <path d="M3.79222955,23.9495548 L58.1553409,23.9495548 C59.0870866,23.9495548 59.8424158,24.704884 59.8424158,25.6366297 C59.8424158,26.0120735 59.7171802,26.3767902 59.4865369,26.6730363 L36.5441414,56.141031 C34.6838687,58.5304286 31.2388304,58.9593691 28.8494328,57.0990965 C28.5645087,56.8772679 28.3021948,56.6278356 28.0663122,56.3544328 L2.51486271,26.7386984 C1.90620697,26.0332282 1.98469061,24.9679186 2.69016084,24.3592628 C2.99650343,24.0949609 3.38762935,23.9495548 3.79222955,23.9495548 Z" id="Path-18-Copy-2" fill="#000000" opacity="0.5"></path>
                <g id="Path-18" transform="translate(0.000000, 24.040816)">
                    <mask id="mask-2" fill="white">
                        <use xlink:href="#path-1"></use>
                    </mask>
                    <use id="Mask" fill="#000000" opacity="0.5" xlink:href="#path-1"></use>
                    <path d="M3.79222955,-24.0408163 L59.9198367,-24.0408163 C60.8515824,-24.0408163 61.6069116,-23.2854872 61.6069116,-22.3537415 L61.6069116,5.94662146 C61.6069116,6.3889874 61.4331644,6.81365579 61.1230923,7.12916004 L32.435383,36.3194518 L32.435383,36.3194518 L32.435383,14.0552806 C32.435383,13.6506804 32.289977,13.2595544 32.025675,12.9532118 L2.51486271,-21.2516728 C1.90620697,-21.957143 1.98469061,-23.0224526 2.69016084,-23.6311083 C2.99650343,-23.8954103 3.38762935,-24.0408163 3.79222955,-24.0408163 Z" fill="#000000" mask="url(#mask-2)"></path>
                </g>
                <path d="M3.79222955,-2.4158453e-13 L59.9198367,-2.4158453e-13 C60.8515824,-2.4158453e-13 61.6069116,0.75532913 61.6069116,1.68707483 L61.6069116,29.9874378 C61.6069116,30.4298037 61.4331644,30.8544721 61.1230923,31.1699764 L36.0786443,56.6531803 L32.435383,56.6531803 L32.435383,38.0960969 C32.435383,37.6914967 32.289977,37.3003708 32.025675,36.9940282 L2.51486271,2.78914354 C1.90620697,2.08367331 1.98469061,1.01836373 2.69016084,0.409707991 C2.99650343,0.145406012 3.38762935,-2.4158453e-13 3.79222955,-2.4158453e-13 Z" id="Path-18" fill="#000000"></path>
            </g>
        </g>
    </g>
</svg>