<?xml version="1.0" encoding="UTF-8"?>
<svg width="58px" height="58px" viewBox="0 0 58 58" version="1.1" xmlns="http://www.w3.org/2000/svg" xmlns:xlink="http://www.w3.org/1999/xlink">
    <!-- Generator: Sketch 59.1 (86144) - https://sketch.com -->
    <title>Group 2 Copy</title>
    <desc>Created with Sketch.</desc>
    <g id="Page-1" stroke="none" stroke-width="1" fill="none" fill-rule="evenodd">
        <g id="Artboard-Copy-5" transform="translate(-178.000000, -2176.000000)" fill="#000000">
            <g id="Group-2-Copy" transform="translate(178.000000, 2176.000000)">
                <path d="M57.2,3.62376795e-13 L57.2,57.2 L3.62376795e-13,57.2 L3.62376795e-13,3.62376795e-13 L57.2,3.62376795e-13 Z M39.3624,25.764 C35.3232,25.764 33.5412,28.0212 33.5412,30.4368 C33.5412,32.8524 34.9668,34.476 38.016,35.664 L38.016,35.664 L38.2513717,35.7582348 C40.156626,36.5295178 40.6692,36.9586154 40.6692,37.644 C40.6692,38.3172 40.1148,38.634 39.3228,38.634 C37.9215692,38.634 36.5437704,38.0716331 35.982485,37.8120792 L35.982485,37.8120792 L35.6294354,37.6398979 C35.29845,37.501 34.9536,37.5978 34.8084,37.9608 L34.8084,37.9608 L33.7392,40.0992 C33.5808,40.416 33.7392,40.7328 33.9768,40.9308 C34.8084,41.5644 36.63,42.396 39.2436,42.396 C43.2432,42.396 45.54,40.1784 45.54,37.5648 C45.54,34.6525029 43.4981917,33.3243673 40.7090614,32.1863312 L40.7090614,32.1863312 L40.194,31.9812 C38.7288,31.3872 38.016,31.1496 38.016,30.4368 C38.016,29.922 38.412,29.526 39.3624,29.526 C40.7418,29.526 42.354125,30.224775 42.6132667,30.3412375 L42.6492,30.3576 L42.7474476,30.3883296 C43.050744,30.465312 43.4214,30.40116 43.5996,30.0804 L43.5996,30.0804 L44.5896,28.0608 C44.7876,27.6648 44.5896,27.2292 44.2332,26.9916 C43.4016,26.4372 41.6988,25.764 39.3624,25.764 Z M24.662,14.28 L15.356,14.28 C14.9204,14.28 14.6036,14.6364 14.6036,15.0324 L14.6036,41.2476 C14.6036,41.6436 14.9204,42 15.356,42 L18.9992,42 C19.3952,42 19.7516,41.6436 19.7516,41.2476 L19.7516,31.9416 L24.7016,31.9416 C29.5328,31.9416 33.5324,27.942 33.5324,23.0316 C33.5324,18.24 29.5328,14.28 24.662,14.28 Z M24.3452,19.1508 C26.5628,19.1508 28.424,20.814 28.424,22.992 C28.424,25.3284 26.5628,27.1104 24.3452,27.1104 L19.7516,27.1104 L19.7516,19.1508 L24.3452,19.1508 Z" id="Combined-Shape"></path>
            </g>
        </g>
    </g>
</svg>