<?xml version="1.0" encoding="UTF-8"?>
<svg width="64px" height="59px" viewBox="0 0 64 59" version="1.1" xmlns="http://www.w3.org/2000/svg" xmlns:xlink="http://www.w3.org/1999/xlink">
    <!-- Generator: Sketch 59.1 (86144) - https://sketch.com -->
    <title>Group Copy</title>
    <desc>Created with Sketch.</desc>
    <g id="Page-1" stroke="none" stroke-width="1" fill="none" fill-rule="evenodd">
        <g id="Artboard-Copy-5" transform="translate(-311.000000, -2175.000000)" fill="#000000">
            <g id="Group-Copy" transform="translate(311.000000, 2175.000000)">
                <path d="M63.577,23.499191 L33.959,58.574191 L51.163,23.499191 L63.577,23.499191 Z M48.935,23.499191 L31.908,58.214191 L14.88,23.499191 L48.935,23.499191 Z M12.652,23.499191 L29.602,58.056191 L0.422,23.499191 L12.652,23.499191 Z M11.876,4.72619098 L11.025,20.499191 L1.625,20.499191 L11.876,4.72619098 Z M31.907,1.75219098 L48.237,20.499191 L15.578,20.499191 L31.907,1.75219098 Z M51.032,3.05019098 L62.374,20.499191 L51.974,20.499191 L51.032,3.05019098 Z M30.589,0.223190981 L13.035,20.374191 L13.981,2.84419098 L30.589,0.223190981 Z M33.197,0.189190981 L49.01,2.68519098 L49.91,19.376191 L33.197,0.189190981 Z" id="Combined-Shape"></path>
            </g>
        </g>
    </g>
</svg>